<svg width="200" height="200" viewBox="0 0 200 200" xmlns="http://www.w3.org/2000/svg">
  <defs>
    <!-- Earth gradient -->
    <radialGradient id="earthGradient" cx="30%" cy="30%" r="70%">
      <stop offset="0%" style="stop-color:#4A90E2;stop-opacity:1" />
      <stop offset="50%" style="stop-color:#357ABD;stop-opacity:1" />
      <stop offset="100%" style="stop-color:#2E5984;stop-opacity:1" />
    </radialGradient>
    
    <!-- Land gradient -->
    <linearGradient id="landGradient" x1="0%" y1="0%" x2="100%" y2="100%">
      <stop offset="0%" style="stop-color:#8FBC8F;stop-opacity:1" />
      <stop offset="50%" style="stop-color:#6B8E23;stop-opacity:1" />
      <stop offset="100%" style="stop-color:#556B2F;stop-opacity:1" />
    </linearGradient>
    
    <!-- Pie crust gradient -->
    <linearGradient id="crustGradient" x1="0%" y1="0%" x2="100%" y2="100%">
      <stop offset="0%" style="stop-color:#D2691E;stop-opacity:1" />
      <stop offset="50%" style="stop-color:#CD853F;stop-opacity:1" />
      <stop offset="100%" style="stop-color:#A0522D;stop-opacity:1" />
    </linearGradient>
    
    <!-- Pie filling gradients -->
    <linearGradient id="appleFilling" x1="0%" y1="0%" x2="100%" y2="100%">
      <stop offset="0%" style="stop-color:#FF6B6B;stop-opacity:1" />
      <stop offset="100%" style="stop-color:#DC143C;stop-opacity:1" />
    </linearGradient>
    
    <linearGradient id="cherryFilling" x1="0%" y1="0%" x2="100%" y2="100%">
      <stop offset="0%" style="stop-color:#FF1493;stop-opacity:1" />
      <stop offset="100%" style="stop-color:#C71585;stop-opacity:1" />
    </linearGradient>
    
    <linearGradient id="blueberryFilling" x1="0%" y1="0%" x2="100%" y2="100%">
      <stop offset="0%" style="stop-color:#4169E1;stop-opacity:1" />
      <stop offset="100%" style="stop-color:#191970;stop-opacity:1" />
    </linearGradient>
    
    <linearGradient id="lemonFilling" x1="0%" y1="0%" x2="100%" y2="100%">
      <stop offset="0%" style="stop-color:#FFD700;stop-opacity:1" />
      <stop offset="100%" style="stop-color:#FFA500;stop-opacity:1" />
    </linearGradient>
    
    <!-- Shadow filter -->
    <filter id="shadow" x="-50%" y="-50%" width="200%" height="200%">
      <feDropShadow dx="0" dy="8" stdDeviation="12" flood-color="#000000" flood-opacity="0.3"/>
    </filter>
    
    <!-- Glow filter -->
    <filter id="glow" x="-50%" y="-50%" width="200%" height="200%">
      <feGaussianBlur stdDeviation="2" result="coloredBlur"/>
      <feMerge> 
        <feMergeNode in="coloredBlur"/>
        <feMergeNode in="SourceGraphic"/>
      </feMerge>
    </filter>
  </defs>
  
  <!-- Background circle representing Earth -->
  <circle cx="100" cy="100" r="90" fill="url(#earthGradient)" filter="url(#shadow)"/>
  
  <!-- World map continents as pie slices -->
  <!-- North America -->
  <path d="M 100 100 L 100 20 A 80 80 0 0 1 140 35 L 100 100 Z" fill="url(#appleFilling)" opacity="0.9"/>
  <path d="M 100 100 L 140 35 A 80 80 0 0 1 160 50 L 100 100 Z" fill="url(#appleFilling)" opacity="0.8"/>
  
  <!-- South America -->
  <path d="M 100 100 L 160 50 A 80 80 0 0 1 150 80 L 100 100 Z" fill="url(#cherryFilling)" opacity="0.9"/>
  <path d="M 100 100 L 150 80 A 80 80 0 0 1 140 120 L 100 100 Z" fill="url(#cherryFilling)" opacity="0.8"/>
  
  <!-- Europe -->
  <path d="M 100 100 L 100 20 A 80 80 0 0 1 120 25 L 100 100 Z" fill="url(#blueberryFilling)" opacity="0.9"/>
  
  <!-- Africa -->
  <path d="M 100 100 L 120 25 A 80 80 0 0 1 130 40 L 100 100 Z" fill="url(#lemonFilling)" opacity="0.9"/>
  <path d="M 100 100 L 130 40 A 80 80 0 0 1 135 70 L 100 100 Z" fill="url(#lemonFilling)" opacity="0.8"/>
  <path d="M 100 100 L 135 70 A 80 80 0 0 1 130 100 L 100 100 Z" fill="url(#lemonFilling)" opacity="0.7"/>
  
  <!-- Asia -->
  <path d="M 100 100 L 120 25 A 80 80 0 0 1 160 30 L 100 100 Z" fill="url(#appleFilling)" opacity="0.8"/>
  <path d="M 100 100 L 160 30 A 80 80 0 0 1 170 60 L 100 100 Z" fill="url(#appleFilling)" opacity="0.7"/>
  
  <!-- Australia -->
  <path d="M 100 100 L 170 60 A 80 80 0 0 1 160 90 L 100 100 Z" fill="url(#cherryFilling)" opacity="0.8"/>
  
  <!-- Pie crust border -->
  <circle cx="100" cy="100" r="90" fill="none" stroke="url(#crustGradient)" stroke-width="6" opacity="0.9"/>
  
  <!-- Crust texture lines -->
  <path d="M 100 10 A 90 90 0 0 1 190 100" fill="none" stroke="url(#crustGradient)" stroke-width="2" opacity="0.6"/>
  <path d="M 100 10 A 90 90 0 0 1 100 190" fill="none" stroke="url(#crustGradient)" stroke-width="2" opacity="0.6"/>
  <path d="M 100 10 A 90 90 0 0 1 10 100" fill="none" stroke="url(#crustGradient)" stroke-width="2" opacity="0.6"/>
  
  <!-- Connection lines representing global connectivity -->
  <g stroke="#FFFFFF" stroke-width="2" opacity="0.7" filter="url(#glow)">
    <!-- North America to Europe -->
    <path d="M 120 35 Q 110 25 115 25" fill="none"/>
    <!-- Europe to Asia -->
    <path d="M 140 30 Q 150 25 160 30" fill="none"/>
    <!-- Asia to Australia -->
    <path d="M 165 45 Q 170 75 160 90" fill="none"/>
    <!-- Africa to South America -->
    <path d="M 130 85 Q 140 100 150 80" fill="none"/>
  </g>
  
  <!-- Small decorative pie slices around the edges -->
  <g transform="translate(100, 100)">
    <!-- Top right small slice -->
    <path d="M 0 0 L 0 -70 A 70 70 0 0 1 35 -60 L 0 0 Z" fill="url(#appleFilling)" opacity="0.6" transform="translate(60, -60) rotate(45)"/>
    
    <!-- Bottom left small slice -->
    <path d="M 0 0 L 0 70 A 70 70 0 0 1 -35 60 L 0 0 Z" fill="url(#cherryFilling)" opacity="0.6" transform="translate(-60, 60) rotate(-135)"/>
    
    <!-- Top left small slice -->
    <path d="M 0 0 L 0 -70 A 70 70 0 0 1 -35 -60 L 0 0 Z" fill="url(#blueberryFilling)" opacity="0.6" transform="translate(-60, -60) rotate(135)"/>
  </g>
  
  <!-- Center accent -->
  <circle cx="100" cy="100" r="8" fill="#FFFFFF" opacity="0.9"/>
  <circle cx="100" cy="100" r="4" fill="#FFD700"/>
  
  <!-- Animated elements -->
  <g opacity="0.8">
    <!-- Floating pie crumbs -->
    <circle cx="30" cy="30" r="1.5" fill="url(#crustGradient)">
      <animate attributeName="opacity" values="0.8;0.3;0.8" dur="3s" repeatCount="indefinite"/>
    </circle>
    <circle cx="170" cy="40" r="1" fill="url(#crustGradient)">
      <animate attributeName="opacity" values="0.8;0.2;0.8" dur="2.5s" repeatCount="indefinite"/>
    </circle>
    <circle cx="160" cy="160" r="2" fill="url(#crustGradient)">
      <animate attributeName="opacity" values="0.8;0.4;0.8" dur="3.5s" repeatCount="indefinite"/>
    </circle>
  </g>
</svg> 